<?xml version="1.0" standalone="yes"?>
<svg xmlns="http://www.w3.org/2000/svg" width="474" height="67">
<path style="fill:#f5f5f7; stroke:none;" d="M0 0L0 67L474 67L474 0L0 0z"/>
<path style="fill:#3242db; stroke:none;" d="M188 1L188 65L472 65L472 1L188 1z"/>
<path style="fill:#9a9fd4; stroke:none;" d="M15 19L16 20L15 19z"/>
<path style="fill:#59595a; stroke:none;" d="M16 19L16 20L19 20L16 19z"/>
<path style="fill:#050505; stroke:none;" d="M29 44L29 42L28 41C24.0519 42.4015 20.2821 44.6992 16.0039 43.1026C7.94901 40.0967 6.191 30.0292 13.1883 24.8796C18.4717 20.9914 23.3951 24.6929 29 24C11.4462 4.09177 -8.60427 48.4764 20 46.892C23.3146 46.7084 26.1107 45.5145 29 44z"/>
<path style="fill:#59595a; stroke:none;" d="M20 19L20 20L23 20L20 19z"/>
<path style="fill:#9a9fd4; stroke:none;" d="M23 19L24 20L23 19M42 19L42 47L43 47L42 19z"/>
<path style="fill:#59595a; stroke:none;" d="M43 19L43 20L46 20L46 44L47 44C47 37.6993 50.0646 21.3447 43 19z"/>
<path style="fill:#9a9fd4; stroke:none;" d="M46 19L47 20L46 19M81 19L82 20L81 19z"/>
<path style="fill:#59595a; stroke:none;" d="M82 19L82 20L89 20L82 19z"/>
<path style="fill:#9a9fd4; stroke:none;" d="M89 19L90 20L89 19M113 19L114 20L113 19z"/>
<path style="fill:#59595a; stroke:none;" d="M113 37L114 37C114 31.7691 112.14 23.1507 117 20C110.844 18.6173 113 33.1331 113 37M133 19L133 20L136 20L136 38L137 38C137 32.3673 139.447 21.1398 133 19z"/>
<path style="fill:#9a9fd4; stroke:none;" d="M136 19L137 20L136 19M152 19L153 20L152 19z"/>
<path style="fill:#59595a; stroke:none;" d="M153 19L153 20L164 20L153 19z"/>
<path style="fill:#9a9fd4; stroke:none;" d="M164 19L164 20L167 20L164 19M211 47L212 47L212 20L227 20C206.979 11.5989 211 34.6652 211 47M248 36L249 36L249 20L252 20L252 37L253 37L253 19C245.61 20.2333 248 30.1719 248 36M268 19L268 20L272 20L268 19M287 19L287 20L302 20L287 19M327 19L327 20L342 20L327 19M367 19L367 20L371 20L367 19M386 19L386 47L387 47L387 20L406 20L386 19M424 19L424 20L427 20L424 19z"/>
<path style="fill:#f5f5f7; stroke:none;" d="M419 41L418 44C423.241 46.747 443.084 49.0535 437.727 37.0548C435.218 31.436 428.18 33.0703 424.377 29.2978C420.116 25.072 427.676 22.3683 430.995 22.8395C433.011 23.1256 434.979 23.7043 437 24C434.5 16.8857 420.092 18.0839 419.167 26.0147C418.027 35.8008 429.672 32.2649 433.248 38.2122C438.101 46.2827 421.473 42.1539 419 41z"/>
<path style="fill:#9a9fd4; stroke:none;" d="M430 19L430 20L433 20L430 19M12 20L13 21L12 20z"/>
<path style="fill:#59595a; stroke:none;" d="M13 20L14 21L13 20M25 20L26 21L25 20z"/>
<path style="fill:#050505; stroke:none;" d="M43 20L43 47L61 47L61 44L46 44L46 20L43 20z"/>
<path style="fill:#59595a; stroke:none;" d="M79 20L80 21L79 20z"/>
<path style="fill:#050505; stroke:none;" d="M80.0039 20.7029C62.9496 26.5504 74.2407 51.8772 90.9961 46.1458C108.726 40.0813 97.4491 14.7215 80.0039 20.7029z"/>
<path style="fill:#59595a; stroke:none;" d="M91 20L92 21L91 20z"/>
<path style="fill:#9a9fd4; stroke:none;" d="M92 20L93 21L92 20z"/>
<path style="fill:#050505; stroke:none;" d="M114 20C114 26.4566 112.227 36.0801 115.457 41.8951C119.201 48.6352 131.045 48.6928 134.821 41.8951C137.916 36.323 136 26.2241 136 20L133 20C133 25.4777 134.27 32.8261 132.258 37.9954C129.665 44.6554 121.602 45.3746 118.179 38.956C115.477 33.8893 117 25.5931 117 20L114 20z"/>
<path style="fill:#9a9fd4; stroke:none;" d="M117 20L117 37L118 37L117 20z"/>
<path style="fill:#050505; stroke:none;" d="M152 20L152 47C158.774 47 166.959 47.998 172.895 43.9946C180.823 38.648 179.149 25.6048 170.995 21.4568C165.588 18.7058 157.895 20 152 20z"/>
<path style="fill:#59595a; stroke:none;" d="M169 20L170 21L169 20z"/>
<path style="fill:#9a9fd4; stroke:none;" d="M170 20L171 21L170 20z"/>
<path style="fill:#f5f5f7; stroke:none;" d="M212 20L212 47C217.829 47 225.574 48.2841 230.891 45.4275C236.764 42.2724 235.035 35.642 230 33C241.705 19.8451 219.788 20 212 20z"/>
<path style="fill:#9a9fd4; stroke:none;" d="M229 20L230 21L229 20z"/>
<path style="fill:#f5f5f7; stroke:none;" d="M249 20C249 26.4566 247.227 36.0801 250.457 41.8951C254.325 48.8582 265.882 48.4983 269.91 41.9452C273.595 35.9504 272 26.7333 272 20L268 20C268 25.4244 269.322 32.871 267.397 37.9954C265.12 44.0551 257.724 45.5691 254.09 39.8912C250.608 34.4521 252 26.1493 252 20L249 20M287 20L287 47C293.849 47 301.923 48.1167 307.895 44.0054C315.753 38.5959 314.353 25.4427 305.996 21.3179C300.631 18.6697 292.826 20 287 20z"/>
<path style="fill:#9a9fd4; stroke:none;" d="M304 20L305 21L304 20z"/>
<path style="fill:#f5f5f7; stroke:none;" d="M327 20L327 47C333.849 47 341.923 48.1167 347.895 44.0054C355.753 38.5959 354.353 25.4427 345.996 21.3179C340.631 18.6697 332.826 20 327 20z"/>
<path style="fill:#9a9fd4; stroke:none;" d="M344 20L345 21L344 20z"/>
<path style="fill:#f5f5f7; stroke:none;" d="M367 20L367 47L371 47L371 20L367 20M387 20L387 47L406 47L406 44L390 44C390.036 33.7408 395.044 34 404 34L404 32C395.876 32 390.114 32.6765 390 23C395.074 23 402.942 24.7166 406 20L387 20z"/>
<path style="fill:#9a9fd4; stroke:none;" d="M422 20L423 21L422 20M435 20L436 21L435 20M10 21L11 22L10 21M27 21L28 22L27 21z"/>
<path style="fill:#59595a; stroke:none;" d="M77 21L78 22L77 21z"/>
<path style="fill:#9a9fd4; stroke:none;" d="M94 21L95 22L94 21z"/>
<path style="fill:#59595a; stroke:none;" d="M171 21L172 22L171 21z"/>
<path style="fill:#9a9fd4; stroke:none;" d="M231 21L232 22L231 21M437.333 21.6667L437.667 22.3333L437.333 21.6667M9 22L10 23L9 22z"/>
<path style="fill:#59595a; stroke:none;" d="M18 22L18 23L21 23L18 22M28 22L29 23L28 22M76 22L77 23L76 22M84 22L84 23L88 23L84 22z"/>
<path style="fill:#9a9fd4; stroke:none;" d="M95 22L96 23L95 22M173 22L174 23L173 22M226 32L226 31L216 31L216 23L225 23C219.899 20.8602 209.852 25.6204 216.603 30.9722C218.87 32.7691 223.298 31.9997 226 32M232 22L233 23L232 22M308 22L309 23L308 22M348 22L349 23L348 22M405 22L406 23L405 22M427 22L427 23L431 23L427 22z"/>
<path style="fill:#59595a; stroke:none;" d="M8 23L9 24L8 23M14 23L15 24L14 23z"/>
<path style="fill:#9a9fd4; stroke:none;" d="M15 23L16 24L15 23M23 23L24 24L23 23M29 23L30 24L29 23z"/>
<path style="fill:#59595a; stroke:none;" d="M81 23L82 24L81 23z"/>
<path style="fill:#f5f5f7; stroke:none;" d="M82.0046 23.7431C69.3123 28.6151 77.2255 47.2846 89.9846 42.2577C101.898 37.5639 93.8064 19.2128 82.0046 23.7431z"/>
<path style="fill:#9a9fd4; stroke:none;" d="M89 23L90 24L89 23z"/>
<path style="fill:#59595a; stroke:none;" d="M90 23L91 24L90 23M96 23L97 24L96 23z"/>
<path style="fill:#f5f5f7; stroke:none;" d="M156 23L156 43C160.069 43 165.242 43.8018 168.956 41.821C174.592 38.8148 175.879 29.8364 170.772 25.7029C166.72 22.424 160.866 23.0005 156 23z"/>
<path style="fill:#9a9fd4; stroke:none;" d="M166.667 23.3333L167.333 23.6667L166.667 23.3333z"/>
<path style="fill:#59595a; stroke:none;" d="M174 23L175 24L174 23z"/>
<path style="fill:#3242db; stroke:none;" d="M216 23L216 31C231.349 31 231.349 23 216 23z"/>
<path style="fill:#9a9fd4; stroke:none;" d="M227 23L228 24L227 23z"/>
<path style="fill:#3242db; stroke:none;" d="M291 23L291 43C295.097 43 300.229 43.7816 303.981 41.821C309.697 38.8337 310.927 29.8749 305.772 25.7029C301.72 22.424 295.866 23.0005 291 23z"/>
<path style="fill:#59595a; stroke:none;" d="M301 23L302 24L301 23z"/>
<path style="fill:#9a9fd4; stroke:none;" d="M302 23L303 24L302 23M309 23L310 24L309 23z"/>
<path style="fill:#3242db; stroke:none;" d="M331 23L331 43C335.097 43 340.229 43.7816 343.981 41.821C349.697 38.8337 350.927 29.8749 345.772 25.7029C341.72 22.424 335.866 23.0005 331 23z"/>
<path style="fill:#59595a; stroke:none;" d="M341 23L342 24L341 23z"/>
<path style="fill:#9a9fd4; stroke:none;" d="M342 23L343 24L342 23M349 23L350 24L349 23M390 23L390 31L391 31L390 23M424 23L425 24L424 23M433 23L434 24L433 23M7 24L8 25L7 24M13 24L14 25L13 24z"/>
<path style="fill:#59595a; stroke:none;" d="M25 24L26 25L25 24M28 24L29 25L28 24M79 24L80 25L79 24z"/>
<path style="fill:#9a9fd4; stroke:none;" d="M91 24L92 25L91 24M97 24L98 25L97 24M169 24L170 25L169 24z"/>
<path style="fill:#59595a; stroke:none;" d="M175 24L176 25L175 24z"/>
<path style="fill:#9a9fd4; stroke:none;" d="M233.333 24.6667L233.667 25.3333L233.333 24.6667M304 24L305 25L304 24M310 24L311 25L310 24M344 24L345 25L344 24M350 24L351 25L350 24z"/>
<path style="fill:#59595a; stroke:none;" d="M418 24L419 25L418 24z"/>
<path style="fill:#9a9fd4; stroke:none;" d="M435.667 24.3333L436.333 24.6667L435.667 24.3333z"/>
<path style="fill:#59595a; stroke:none;" d="M11 25L12 26L11 25z"/>
<path style="fill:#9a9fd4; stroke:none;" d="M26 25L27 26L26 25z"/>
<path style="fill:#59595a; stroke:none;" d="M27 25L28 26L27 25M73 25L74 26L73 25z"/>
<path style="fill:#9a9fd4; stroke:none;" d="M78 25L79 26L78 25z"/>
<path style="fill:#59595a; stroke:none;" d="M93 25L94 26L93 25M171 25L172 26L171 25z"/>
<path style="fill:#9a9fd4; stroke:none;" d="M176 25L177 26L176 25M229 25L230 26L229 25M306 25L307 26L306 25M311 25L312 26L311 25M346 25L347 26L346 25M351 25L352 26L351 25M418 25L418 30L419 30L418 25M422 25L423 26L422 25z"/>
<path style="fill:#59595a; stroke:none;" d="M6 26L7 27L6 26z"/>
<path style="fill:#9a9fd4; stroke:none;" d="M72 26L73 27L72 26M77 26L78 27L77 26z"/>
<path style="fill:#59595a; stroke:none;" d="M98 26L99 27L98 26M172 26L173 27L172 26z"/>
<path style="fill:#9a9fd4; stroke:none;" d="M307 26L308 27L307 26M347 26L348 27L347 26M5 27L6 28L5 27M10 27L11 28L10 27z"/>
<path style="fill:#59595a; stroke:none;" d="M72 27L73 28L72 27M76 27L77 28L76 27z"/>
<path style="fill:#9a9fd4; stroke:none;" d="M94 27L95 28L94 27M99 27L100 28L99 27M177 27L178 28L177 27M233.333 27.6667L233.667 28.3333L233.333 27.6667M312 27L313 28L312 27M352 27L353 28L352 27z"/>
<path style="fill:#59595a; stroke:none;" d="M422 27L423 28L422 27M5 28L6 29L5 28M9 28L10 29L9 28M95 28L96 29L95 28M99 28L100 29L99 28z"/>
<path style="fill:#9a9fd4; stroke:none;" d="M173 28L174 29L173 28z"/>
<path style="fill:#59595a; stroke:none;" d="M177 28L178 29L177 28z"/>
<path style="fill:#9a9fd4; stroke:none;" d="M229 28L230 29L229 28M308 28L309 29L308 28M348 28L349 29L348 28M422 28L423 29L422 28M9 29L10 30L9 29M71 29L72 30L71 29z"/>
<path style="fill:#59595a; stroke:none;" d="M75 29L76 30L75 29z"/>
<path style="fill:#9a9fd4; stroke:none;" d="M95 29L96 30L95 29M423 29L424 30L423 29z"/>
<path style="fill:#59595a; stroke:none;" d="M71.3333 30.6667L71.6667 31.3333L71.3333 30.6667z"/>
<path style="fill:#9a9fd4; stroke:none;" d="M75.3333 30.6667L75.6667 31.3333L75.3333 30.6667z"/>
<path style="fill:#59595a; stroke:none;" d="M174.333 30.6667L174.667 31.3333L174.333 30.6667z"/>
<path style="fill:#9a9fd4; stroke:none;" d="M178.333 30.6667L178.667 31.3333L178.333 30.6667z"/>
<path style="fill:#59595a; stroke:none;" d="M227 30L228 31L227 30z"/>
<path style="fill:#9a9fd4; stroke:none;" d="M232 30L233 31L232 30M309 30L309 36L310 36L309 30M313 30L313 36L314 36L313 30M349 30L349 36L350 36L349 30M353 30L353 36L354 36L353 30M425 30L426 31L425 30M4 31L4 36L5 36L4 31z"/>
<path style="fill:#59595a; stroke:none;" d="M8 31L8 36L9 36L8 31M96 31L96 36L97 36L96 31z"/>
<path style="fill:#9a9fd4; stroke:none;" d="M100 31L100 36L101 36L100 31M391 31L391 32L404 32L391 31M428.667 31.3333L429.333 31.6667L428.667 31.3333M174 32L174 35L175 35L174 32z"/>
<path style="fill:#59595a; stroke:none;" d="M178 32L178 35L179 35L178 32z"/>
<path style="fill:#9a9fd4; stroke:none;" d="M230 32L231 33L230 32M432 32L433 33L432 32M422 33L423 34L422 33z"/>
<path style="fill:#59595a; stroke:none;" d="M71 34L71 37L72 37L71 34z"/>
<path style="fill:#9a9fd4; stroke:none;" d="M215 44L216 44L216 35L226 35C217.55 31.4543 215.006 36.4685 215 44M233 34L234 35L233 34M391 34L391 35L404 35L391 34M425.667 34.3333L426.333 34.6667L425.667 34.3333M436 34L437 35L436 34M75 35L76 36L75 35M132 35L132 38L133 38L132 35z"/>
<path style="fill:#59595a; stroke:none;" d="M174 35L175 36L174 35z"/>
<path style="fill:#9a9fd4; stroke:none;" d="M178.333 35.6667L178.667 36.3333L178.333 35.6667z"/>
<path style="fill:#3242db; stroke:none;" d="M216 35L216 44C218.791 43.9982 235.663 43.275 229.377 36.7415C226.523 33.7745 219.722 35 216 35z"/>
<path style="fill:#59595a; stroke:none;" d="M228 35L229 36L228 35z"/>
<path style="fill:#9a9fd4; stroke:none;" d="M390 35L390 44L406 44L406 43L391 43L390 35M429.667 35.3333L430.333 35.6667L429.667 35.3333M437 35L438 36L437 35z"/>
<path style="fill:#59595a; stroke:none;" d="M75 36L76 37L75 36z"/>
<path style="fill:#9a9fd4; stroke:none;" d="M230 36L231 37L230 36M234 36L235 37L234 36z"/>
<path style="fill:#59595a; stroke:none;" d="M248 36L249 37L248 36M313 36L314 37L313 36M353 36L354 37L353 36z"/>
<path style="fill:#9a9fd4; stroke:none;" d="M432 36L433 37L432 36z"/>
<path style="fill:#59595a; stroke:none;" d="M5 37L6 38L5 37z"/>
<path style="fill:#9a9fd4; stroke:none;" d="M9 37L10 38L9 37M71 37L72 38L71 37M95 37L96 38L95 37z"/>
<path style="fill:#59595a; stroke:none;" d="M99 37L100 38L99 37z"/>
<path style="fill:#9a9fd4; stroke:none;" d="M113.333 37.6667L113.667 38.3333L113.333 37.6667z"/>
<path style="fill:#59595a; stroke:none;" d="M117.333 37.6667L117.667 38.3333L117.333 37.6667z"/>
<path style="fill:#9a9fd4; stroke:none;" d="M173 37L174 38L173 37M438 37L439 38L438 37M5 38L6 39L5 38M76 38L77 39L76 38M99 38L100 39L99 38z"/>
<path style="fill:#59595a; stroke:none;" d="M132 38L133 39L132 38z"/>
<path style="fill:#9a9fd4; stroke:none;" d="M136 38L137 39L136 38z"/>
<path style="fill:#59595a; stroke:none;" d="M173 38L174 39L173 38M177 38L178 39L177 38z"/>
<path style="fill:#9a9fd4; stroke:none;" d="M267.333 38.6667L267.667 39.3333L267.333 38.6667M271.333 38.6667L271.667 39.3333L271.333 38.6667M308 38L309 39L308 38M312 38L313 39L312 38M348 38L349 39L348 38M352 38L353 39L352 38M434 38L435 39L434 38z"/>
<path style="fill:#59595a; stroke:none;" d="M10 39L11 40L10 39z"/>
<path style="fill:#9a9fd4; stroke:none;" d="M72 39L73 40L72 39z"/>
<path style="fill:#59595a; stroke:none;" d="M94 39L95 40L94 39z"/>
<path style="fill:#9a9fd4; stroke:none;" d="M172 39L173 40L172 39M177 39L178 40L177 39M231 39L232 40L231 39z"/>
<path style="fill:#59595a; stroke:none;" d="M235 39L236 40L235 39z"/>
<path style="fill:#9a9fd4; stroke:none;" d="M253 39L254 40L253 39M307 39L308 40L307 39M347 39L348 40L347 39M6 40L7 41L6 40M11 40L12 41L11 40z"/>
<path style="fill:#59595a; stroke:none;" d="M77 40L78 41L77 40z"/>
<path style="fill:#9a9fd4; stroke:none;" d="M93 40L94 41L93 40M98 40L99 41L98 40z"/>
<path style="fill:#59595a; stroke:none;" d="M114 40L115 41L114 40M118 40L119 41L118 40z"/>
<path style="fill:#9a9fd4; stroke:none;" d="M131 40L132 41L131 40M171 40L172 41L171 40z"/>
<path style="fill:#59595a; stroke:none;" d="M176 40L177 41L176 40z"/>
<path style="fill:#9a9fd4; stroke:none;" d="M249 40L250 41L249 40z"/>
<path style="fill:#59595a; stroke:none;" d="M306 40L307 41L306 40z"/>
<path style="fill:#9a9fd4; stroke:none;" d="M311 40L312 41L311 40z"/>
<path style="fill:#59595a; stroke:none;" d="M346 40L347 41L346 40z"/>
<path style="fill:#9a9fd4; stroke:none;" d="M351 40L352 41L351 40M438.333 40.6667L438.667 41.3333L438.333 40.6667z"/>
<path style="fill:#59595a; stroke:none;" d="M7 41L8 42L7 41z"/>
<path style="fill:#9a9fd4; stroke:none;" d="M12 41L13 42L12 41M28 41L29 42L28 41M73 41L74 42L73 41M92 41L93 42L92 41z"/>
<path style="fill:#59595a; stroke:none;" d="M97 41L98 42L97 41z"/>
<path style="fill:#9a9fd4; stroke:none;" d="M114 41L115 42L114 41M119 41L120 42L119 41M135 41L136 42L135 41M170 41L171 42L170 41z"/>
<path style="fill:#59595a; stroke:none;" d="M230 41L231 42L230 41z"/>
<path style="fill:#9a9fd4; stroke:none;" d="M254 41L255 42L254 41M270 41L271 42L270 41M305 41L306 42L305 41M345 41L346 42L345 41M418 41L419 42L418 41M434 41L435 42L434 41z"/>
<path style="fill:#59595a; stroke:none;" d="M13 42L14 43L13 42z"/>
<path style="fill:#9a9fd4; stroke:none;" d="M14 42L15 43L14 42z"/>
<path style="fill:#59595a; stroke:none;" d="M24 42L25 43L24 42z"/>
<path style="fill:#9a9fd4; stroke:none;" d="M29.3333 42.6667L29.6667 43.3333L29.3333 42.6667M74 42L75 43L74 42M80 42L81 43L80 42M90 42L91 43L90 42z"/>
<path style="fill:#59595a; stroke:none;" d="M91 42L92 43L91 42M115 42L116 43L115 42z"/>
<path style="fill:#9a9fd4; stroke:none;" d="M120 42L121 43L120 42M129 42L130 43L129 42M168 42L169 43L168 42z"/>
<path style="fill:#59595a; stroke:none;" d="M169 42L170 43L169 42z"/>
<path style="fill:#9a9fd4; stroke:none;" d="M175 42L176 43L175 42z"/>
<path style="fill:#59595a; stroke:none;" d="M229 42L230 43L229 42z"/>
<path style="fill:#9a9fd4; stroke:none;" d="M234 42L235 43L234 42M250 42L251 43L250 42M255 42L256 43L255 42M303 42L304 43L303 42M343 42L344 43L343 42M421 42L422 43L421 42M433 42L434 43L433 42z"/>
<path style="fill:#59595a; stroke:none;" d="M16 43L17 44L16 43z"/>
<path style="fill:#9a9fd4; stroke:none;" d="M17 43L17 44L22 44L17 43z"/>
<path style="fill:#59595a; stroke:none;" d="M22 43L23 44L22 43z"/>
<path style="fill:#9a9fd4; stroke:none;" d="M47 43L47 44C51.7447 44 58.1472 42.5996 61 47L62 47L62 43L47 43M75 43L76 44L75 43z"/>
<path style="fill:#59595a; stroke:none;" d="M82 43L83 44L82 43z"/>
<path style="fill:#9a9fd4; stroke:none;" d="M83 43L83 44L88 44L83 43z"/>
<path style="fill:#59595a; stroke:none;" d="M88.6667 43.3333L89.3333 43.6667L88.6667 43.3333M122 43L123 44L122 43z"/>
<path style="fill:#9a9fd4; stroke:none;" d="M123 43L123 44L127 44L123 43z"/>
<path style="fill:#59595a; stroke:none;" d="M127.667 43.3333L128.333 43.6667L127.667 43.3333z"/>
<path style="fill:#9a9fd4; stroke:none;" d="M156 43L156 44L165 44L156 43z"/>
<path style="fill:#59595a; stroke:none;" d="M165.667 43.3333L166.333 43.6667L165.667 43.3333z"/>
<path style="fill:#9a9fd4; stroke:none;" d="M174 43L175 44L174 43z"/>
<path style="fill:#59595a; stroke:none;" d="M225 43L226 44L225 43z"/>
<path style="fill:#9a9fd4; stroke:none;" d="M226.667 43.3333L227.333 43.6667L226.667 43.3333M257.667 43.3333L258.333 43.6667L257.667 43.3333z"/>
<path style="fill:#59595a; stroke:none;" d="M259 43L260 44L259 43z"/>
<path style="fill:#9a9fd4; stroke:none;" d="M261 43L261 44L264 44L261 43M269 43L270 44L269 43M291 43L291 44L301 44L291 43M331 43L331 44L341 44L331 43M424.667 43.3333L425.333 43.6667L424.667 43.3333z"/>
<path style="fill:#59595a; stroke:none;" d="M430 43L431 44L430 43z"/>
<path style="fill:#9a9fd4; stroke:none;" d="M431 43L432 44L431 43M437 43L438 44L437 43z"/>
<path style="fill:#59595a; stroke:none;" d="M10 44L11 45L10 44z"/>
<path style="fill:#9a9fd4; stroke:none;" d="M76 44L77 45L76 44z"/>
<path style="fill:#59595a; stroke:none;" d="M94 44L95 45L94 44z"/>
<path style="fill:#9a9fd4; stroke:none;" d="M116 44L117 45L116 44M133 44L134 45L133 44z"/>
<path style="fill:#59595a; stroke:none;" d="M172 44L173 45L172 44z"/>
<path style="fill:#9a9fd4; stroke:none;" d="M233 44L234 45L233 44M268 44L269 45L268 44M307 44L308 45L307 44M347 44L348 45L347 44M406 44L406 47L407 47L406 44M418 44L419 45L418 44M436 44L437 45L436 44M11 45L12 46L11 45z"/>
<path style="fill:#59595a; stroke:none;" d="M26 45L27 46L26 45M78 45L79 46L78 45z"/>
<path style="fill:#9a9fd4; stroke:none;" d="M93 45L94 46L93 45z"/>
<path style="fill:#59595a; stroke:none;" d="M118 45L119 46L118 45M131 45L132 46L131 45M170 45L171 46L170 45z"/>
<path style="fill:#9a9fd4; stroke:none;" d="M171 45L172 46L171 45M231 45L232 46L231 45M253 45L254 46L253 45M267 45L268 46L267 45M305 45L306 46L305 45z"/>
<path style="fill:#59595a; stroke:none;" d="M306 45L307 46L306 45z"/>
<path style="fill:#9a9fd4; stroke:none;" d="M345 45L346 46L345 45z"/>
<path style="fill:#59595a; stroke:none;" d="M346 45L347 46L346 45z"/>
<path style="fill:#9a9fd4; stroke:none;" d="M420 45L421 46L420 45M435 45L436 46L435 45M13 46L14 47L13 46z"/>
<path style="fill:#59595a; stroke:none;" d="M14 46L15 47L14 46M23 46L24 47L23 46z"/>
<path style="fill:#9a9fd4; stroke:none;" d="M24 46L25 47L24 46M80 46L81 47L80 46z"/>
<path style="fill:#59595a; stroke:none;" d="M81 46L82 47L81 46M90 46L91 47L90 46z"/>
<path style="fill:#9a9fd4; stroke:none;" d="M91 46L92 47L91 46M119 46L120 47L119 46z"/>
<path style="fill:#59595a; stroke:none;" d="M120 46L121 47L120 46M129 46L130 47L129 46z"/>
<path style="fill:#9a9fd4; stroke:none;" d="M130 46L131 47L130 46z"/>
<path style="fill:#59595a; stroke:none;" d="M166.667 46.3333L167.333 46.6667L166.667 46.3333z"/>
<path style="fill:#9a9fd4; stroke:none;" d="M168 46L169 47L168 46M228.667 46.3333L229.333 46.6667L228.667 46.3333M255 46L256 47L255 46M264.667 46.3333L265.333 46.6667L264.667 46.3333M302.667 46.3333L303.333 46.6667L302.667 46.3333M342.667 46.3333L343.333 46.6667L342.667 46.3333M422.667 46.3333L423.333 46.6667L422.667 46.3333M433 46L434 47L433 46M17 47L17 48L21 48L17 47M84 47L84 48L88 48L84 47M123 47L123 48L127 48L123 47z"/>
<path style="fill:#59595a; stroke:none;" d="M259 47L260 48L259 47z"/>
<path style="fill:#9a9fd4; stroke:none;" d="M260 47L261 48L260 47z"/>
<path style="fill:#59595a; stroke:none;" d="M261 47L262 48L261 47M427 47L428 48L427 47z"/>
<path style="fill:#9a9fd4; stroke:none;" d="M428 47L429 48L428 47z"/>
<path style="fill:#59595a; stroke:none;" d="M429 47L430 48L429 47z"/>
</svg>
